<mxfile host="a9f44bd1-aba8-4162-bdb2-550f56fb7c0d" modified="2020-09-14T17:40:46.373Z" agent="5.0 (Windows NT 10.0; Win64; x64) AppleWebKit/537.36 (KHTML, like Gecko) Code/1.49.0 Chrome/83.0.4103.122 Electron/9.2.1 Safari/537.36" etag="SSWbVsYaRldIApFixlju" version="13.1.3">
    <diagram id="6hGFLwfOUW9BJ-s0fimq" name="Page-1">
        <mxGraphModel dx="822" dy="490" grid="1" gridSize="10" guides="1" tooltips="1" connect="1" arrows="1" fold="1" page="1" pageScale="1" pageWidth="827" pageHeight="1169" math="0" shadow="0">
            <root>
                <mxCell id="0"/>
                <mxCell id="1" parent="0"/>
                <mxCell id="4" value="Vinland Cms Use Case diagram" style="shape=umlFrame;whiteSpace=wrap;html=1;fillColor=none;width=210;height=30;" vertex="1" parent="1">
                    <mxGeometry x="120" y="80" width="680" height="440" as="geometry"/>
                </mxCell>
            </root>
        </mxGraphModel>
    </diagram>
</mxfile>